<?xml version="1.0" standalone="no"?>
<!DOCTYPE svg PUBLIC "-//W3C//DTD SVG 20010904//EN"
 "http://www.w3.org/TR/2001/REC-SVG-20010904/DTD/svg10.dtd">
<svg version="1.0" xmlns="http://www.w3.org/2000/svg"
 width="700.000000pt" height="700.000000pt" viewBox="0 0 700.000000 700.000000"
 preserveAspectRatio="xMidYMid meet">
<metadata>
Created by potrace 1.11, written by Peter Selinger 2001-2013
</metadata>
<g transform="translate(0.000000,700.000000) scale(0.100000,-0.100000)"
fill="#000000" stroke="none">
<path d="M5143 3499 l0 -3499 334 0 333 0 0 855 0 855 563 -1 c309 -1 571 -1
583 0 20 1 20 5 18 244 -3 327 -14 630 -29 837 -3 41 -8 111 -10 155 -3 44 -7
94 -10 110 -2 17 -6 66 -10 110 -3 44 -8 91 -10 105 -3 14 -7 52 -10 85 -4 33
-8 71 -10 85 -9 64 -15 109 -21 159 -3 30 -7 62 -9 71 -2 9 -6 41 -10 71 -3
30 -8 61 -10 69 -4 14 -9 49 -20 127 -4 34 -8 54 -45 263 -35 192 -31 172 -65
325 -15 66 -33 148 -41 182 -7 34 -34 135 -58 225 -204 737 -486 1290 -835
1638 -113 112 -168 158 -296 246 -27 19 -220 126 -301 167 l-31 16 0 -3500z"/>
<path d="M2288 5795 c-2 -2 -35 -6 -74 -9 -263 -22 -561 -109 -829 -241 -571
-281 -1017 -787 -1224 -1389 -38 -111 -62 -193 -75 -258 -4 -16 -8 -40 -11
-55 -3 -16 -8 -35 -10 -43 -2 -8 -7 -37 -10 -65 -4 -27 -8 -61 -10 -75 -25
-150 -25 -392 -1 -605 35 -314 160 -677 329 -955 155 -256 358 -486 590 -670
11 -8 24 -20 31 -25 19 -17 189 -131 226 -152 207 -116 400 -201 555 -243 17
-5 55 -15 85 -23 74 -21 196 -45 256 -52 27 -3 60 -8 74 -12 14 -3 144 -7 290
-10 146 -3 266 -6 267 -7 1 -1 -11 -44 -26 -96 -37 -122 -240 -781 -246 -797
-3 -10 244 -13 1215 -13 l1220 0 0 1315 0 1315 -53 0 c-68 0 -186 33 -262 73
-77 41 -87 48 -167 130 -79 78 -148 209 -168 316 -42 226 29 444 193 598 101
94 268 173 365 173 23 0 24 3 17 38 -19 106 -106 335 -191 506 -63 126 -216
360 -299 456 -299 348 -666 602 -1071 743 -148 52 -300 88 -474 113 -89 14
-502 28 -512 19z m714 -1885 c126 -23 247 -84 339 -173 78 -75 154 -200 175
-288 4 -19 9 -41 12 -49 12 -45 10 -211 -3 -270 -35 -152 -145 -312 -275 -399
-199 -132 -465 -143 -675 -26 -118 66 -225 184 -279 308 -75 171 -68 399 17
552 6 11 17 34 26 50 13 26 140 159 184 192 9 7 43 26 76 43 118 60 272 83
403 60z"/>
</g>
</svg>
