<?xml version="1.0" encoding="UTF-8" standalone="no"?><!DOCTYPE svg PUBLIC "-//W3C//DTD SVG 1.1//EN" "http://www.w3.org/Graphics/SVG/1.1/DTD/svg11.dtd"><svg width="100%" height="100%" viewBox="0 0 120 120" version="1.1" xmlns="http://www.w3.org/2000/svg" xmlns:xlink="http://www.w3.org/1999/xlink" xml:space="preserve" xmlns:serif="http://www.serif.com/" style="fill-rule:evenodd;clip-rule:evenodd;stroke-linejoin:round;stroke-miterlimit:2;"><path d="M10.909,0c-6.027,0 -10.909,4.882 -10.909,10.909l0,98.182c0,6.027 4.882,10.909 10.909,10.909l98.182,0c6.027,0 10.909,-4.882 10.909,-10.909l0,-98.182c0,-6.027 -4.882,-10.909 -10.909,-10.909l-98.182,0Zm32.727,21.818c3.017,0 5.455,2.438 5.455,5.455l0,10.909l21.818,0l0,-10.909c0,-3.017 2.438,-5.455 5.455,-5.455c3.016,0 5.454,2.438 5.454,5.455l0,10.909l10.909,0c3.017,0 5.455,2.438 5.455,5.454c0,3.017 -2.438,5.455 -5.455,5.455l-10.909,0l0,21.818l10.909,0c3.017,0 5.455,2.438 5.455,5.455c0,3.016 -2.438,5.454 -5.455,5.454l-10.909,0l0,10.909c0,3.017 -2.438,5.455 -5.454,5.455c-3.017,0 -5.455,-2.438 -5.455,-5.455l0,-10.909l-21.818,0l0,10.909c0,3.017 -2.438,5.455 -5.455,5.455c-3.016,0 -5.454,-2.438 -5.454,-5.455l0,-10.909l-10.909,0c-3.017,0 -5.455,-2.438 -5.455,-5.454c0,-3.017 2.438,-5.455 5.455,-5.455l10.909,0l0,-21.818l-10.909,0c-3.017,0 -5.455,-2.438 -5.455,-5.455c0,-3.016 2.438,-5.454 5.455,-5.454l10.909,0l0,-10.909c0,-3.017 2.438,-5.455 5.454,-5.455Zm5.455,27.273l0,21.818l21.818,0l0,-21.818l-21.818,0Z" style="fill-rule:nonzero;"/></svg>