<?xml version="1.0" encoding="UTF-8" standalone="no"?><!DOCTYPE svg PUBLIC "-//W3C//DTD SVG 1.1//EN" "http://www.w3.org/Graphics/SVG/1.1/DTD/svg11.dtd"><svg width="100%" height="100%" viewBox="0 0 120 120" version="1.1" xmlns="http://www.w3.org/2000/svg" xmlns:xlink="http://www.w3.org/1999/xlink" xml:space="preserve" xmlns:serif="http://www.serif.com/" style="fill-rule:evenodd;clip-rule:evenodd;stroke-linejoin:round;stroke-miterlimit:2;"><path d="M10.909,0c-6.027,0 -10.909,4.882 -10.909,10.909l0,98.182c0,6.027 4.882,10.909 10.909,10.909l98.182,0c6.027,0 10.909,-4.882 10.909,-10.909l0,-98.182c0,-6.027 -4.882,-10.909 -10.909,-10.909l-98.182,0Zm49.091,20.04c-6.918,0 -12.807,3.673 -16.344,9.06c-0.465,0.302 -0.848,0.716 -1.112,1.203c-0.096,0.171 -0.151,0.36 -0.241,0.533c-1.296,-0.341 -2.543,-0.806 -3.948,-0.806c-10.075,0 -18.315,8.24 -18.315,18.315c0,7.041 4.134,12.966 9.99,16.013l0,18.393c-0.059,0.359 -0.059,0.726 0,1.086l0,12.793c0,1.827 1.503,3.33 3.33,3.33l53.28,0c1.827,0 3.33,-1.503 3.33,-3.33l0,-12.761c0.059,-0.359 0.059,-0.726 0,-1.086l0,-18.133c0.41,-0.23 0.767,-0.545 1.047,-0.923c5.283,-3.186 8.943,-8.778 8.943,-15.382c0,-10.075 -8.24,-18.315 -18.315,-18.315c-1.498,0 -2.812,0.536 -4.202,0.878c-3.328,-6.369 -9.769,-10.868 -17.443,-10.868Z"/></svg>