<?xml version="1.0" encoding="UTF-8" standalone="no"?><!DOCTYPE svg PUBLIC "-//W3C//DTD SVG 1.1//EN" "http://www.w3.org/Graphics/SVG/1.1/DTD/svg11.dtd"><svg width="100%" height="100%" viewBox="0 0 120 120" version="1.1" xmlns="http://www.w3.org/2000/svg" xmlns:xlink="http://www.w3.org/1999/xlink" xml:space="preserve" xmlns:serif="http://www.serif.com/" style="fill-rule:evenodd;clip-rule:evenodd;stroke-linejoin:round;stroke-miterlimit:2;"><path d="M10.909,0c-6.027,0 -10.909,4.882 -10.909,10.909l0,98.182c0,6.027 4.882,10.909 10.909,10.909l98.182,0c6.027,0 10.909,-4.882 10.909,-10.909l0,-98.182c0,-6.027 -4.882,-10.909 -10.909,-10.909l-98.182,0Zm13.451,24.338c0,0 -6.48,12.96 -6.48,25.92c0,11.647 5.694,21.227 19.44,22.516l0,13.909l-10.568,2.557l0,0.006c-1.416,0.375 -2.41,1.667 -2.41,3.132c0,1.778 1.463,3.24 3.24,3.24c0.006,0 0.012,0 0.018,0l12.416,0c0.35,0.058 0.707,0.058 1.057,0l12.447,0c0.014,0.001 0.029,0.001 0.043,0.001c1.777,0 3.24,-1.463 3.24,-3.241c0,-1.474 -1.007,-2.772 -2.435,-3.138l-10.568,-2.557l0,-13.909c13.746,-1.289 19.44,-10.869 19.44,-22.516c0,-12.96 -6.48,-25.92 -6.48,-25.92l-32.4,0Zm48.6,0c-1.788,0 -3.24,1.452 -3.24,3.24l0,18.744c0,7.589 4.994,14.408 12.099,16.32l-2.379,25.933l0.025,0c-0.016,0.187 -0.025,0.375 -0.025,0.563c0,3.555 2.925,6.48 6.48,6.48c3.555,0 6.48,-2.925 6.48,-6.48c-0.002,-0.188 -0.013,-0.376 -0.032,-0.563l0.007,0l-2.373,-25.895c6.967,-1.811 12.118,-8.128 12.118,-15.662l0,-19.44c0,-1.788 -1.452,-3.24 -3.24,-3.24c-1.788,0 -3.24,1.452 -3.24,3.24l0,16.2c0,1.792 -1.452,3.24 -3.24,3.24c-1.788,0 -3.24,-1.448 -3.24,-3.24l0,-16.2c0,-1.788 -1.452,-3.24 -3.24,-3.24c-1.788,0 -3.24,1.452 -3.24,3.24l0,16.2c0,1.792 -1.452,3.24 -3.24,3.24c-1.788,0 -3.24,-1.448 -3.24,-3.24l0,-16.2c0,-1.788 -1.452,-3.24 -3.24,-3.24Z"/></svg>