<?xml version="1.0" encoding="UTF-8" standalone="no"?><!DOCTYPE svg PUBLIC "-//W3C//DTD SVG 1.1//EN" "http://www.w3.org/Graphics/SVG/1.1/DTD/svg11.dtd"><svg width="100%" height="100%" viewBox="0 0 500 500" version="1.1" xmlns="http://www.w3.org/2000/svg" xmlns:xlink="http://www.w3.org/1999/xlink" xml:space="preserve" xmlns:serif="http://www.serif.com/" style="fill-rule:evenodd;clip-rule:evenodd;stroke-linejoin:round;stroke-miterlimit:2;"><path d="M249.101,105.798c-84.69,77.215 -141.835,168.806 -174.996,270.801" style="fill:none;stroke:#000;stroke-width:8.33px;stroke-linecap:round;stroke-miterlimit:1.5;"/><path d="M35.366,209.742c-46.501,-5.471 24.619,-76.59 95.738,-114.886c71.119,-38.295 158.651,-35.559 172.328,-5.47c13.677,30.089 -24.618,79.517 -71.12,120.356c-46.501,40.839 -126.227,88.322 -155.472,78.469c-22.746,-7.663 42.977,-31.242 67.941,-4.614c39.847,42.503 81.775,161.322 139.503,172.327" style="fill:none;stroke:#000;stroke-width:8.33px;stroke-linecap:round;stroke-miterlimit:1.5;"/><path d="M222.562,290.052c-12.652,-3.251 -19.652,40.902 -1.191,20.898c18.75,-20.317 4.296,-34.831 10.941,-32.6c6.287,2.11 19.448,2.589 30.089,-4.258c24.75,-15.923 55.349,-52.689 87.532,-78.027c47.453,-37.36 186.415,-191.936 68.384,-142.239c-103.944,43.766 -155.916,213.358 -155.916,251.653c0,36.018 17.467,49.919 30.089,0c10.058,-39.778 -30.089,-26.497 -2.735,-21.882c27.354,4.614 46.231,1.998 51.702,-5.247c5.471,-7.245 -36.71,0.948 -8.133,17.806c28.577,16.858 35.757,-8.871 38.492,-18.921c2.735,-10.051 -5.471,15.504 -2.735,28.244c2.735,12.741 2.68,-36.991 21.882,-27.129" style="fill:none;stroke:#000;stroke-width:8.33px;stroke-linecap:round;stroke-miterlimit:1.5;"/><path d="M440.2,145.627c-46.501,114.623 -46.501,162.198 -33.342,192.287" style="fill:none;stroke:#000;stroke-width:8.33px;stroke-linecap:round;stroke-miterlimit:1.5;"/><path d="M345.731,226.154c-48.567,-6.091 68.12,-36.304 133.769,-32.424" style="fill:none;stroke:#000;stroke-width:8.33px;stroke-linecap:round;stroke-miterlimit:1.5;"/></svg>