<?xml version="1.0" encoding="UTF-8" standalone="no"?><!DOCTYPE svg PUBLIC "-//W3C//DTD SVG 1.1//EN" "http://www.w3.org/Graphics/SVG/1.1/DTD/svg11.dtd"><svg width="100%" height="100%" viewBox="0 0 120 120" version="1.1" xmlns="http://www.w3.org/2000/svg" xmlns:xlink="http://www.w3.org/1999/xlink" xml:space="preserve" xmlns:serif="http://www.serif.com/" style="fill-rule:evenodd;clip-rule:evenodd;stroke-linejoin:round;stroke-miterlimit:2;"><path d="M10.909,0c-6.027,0 -10.909,4.882 -10.909,10.909l0,98.182c0,6.027 4.882,10.909 10.909,10.909l98.182,0c6.027,0 10.909,-4.882 10.909,-10.909l0,-98.182c0,-6.027 -4.882,-10.909 -10.909,-10.909l-98.182,0Zm49.091,20.098c-22.036,0 -39.902,17.866 -39.902,39.902c0,22.036 17.866,39.902 39.902,39.902c22.036,0 39.902,-17.866 39.902,-39.902c0,-22.036 -17.866,-39.902 -39.902,-39.902Zm3.325,43.227l-26.618,0c-1.828,0 -3.308,-1.48 -3.308,-3.308l0,-0.037c0,-1.825 1.48,-3.305 3.308,-3.305l19.968,0l0,-26.618c0,-1.829 1.48,-3.308 3.308,-3.308l0.037,0c1.825,0 3.305,1.479 3.305,3.308l0,33.268Z"/></svg>