<?xml version="1.0" encoding="UTF-8" standalone="no"?><!DOCTYPE svg PUBLIC "-//W3C//DTD SVG 1.1//EN" "http://www.w3.org/Graphics/SVG/1.1/DTD/svg11.dtd"><svg width="36px" height="32px" viewBox="0 0 150 134" version="1.1" xmlns="http://www.w3.org/2000/svg" xmlns:xlink="http://www.w3.org/1999/xlink" xml:space="preserve" xmlns:serif="http://www.serif.com/" style="fill-rule:evenodd;clip-rule:evenodd;stroke-linejoin:round;stroke-miterlimit:2;"><path d="M68.072,33.337l0,-22.519l13.857,0l0,22.519l8.786,0c0.7,0 1.334,0.421 1.601,1.069c0.088,0.215 0.13,0.44 0.13,0.663c0,0.451 -0.177,0.894 -0.508,1.225l-15.713,15.713c-0.677,0.677 -1.772,0.677 -2.449,0l-15.713,-15.713c-0.495,-0.497 -0.646,-1.24 -0.376,-1.888c0.267,-0.648 0.901,-1.069 1.601,-1.069l8.784,0Z" style="fill:#fff;fill-rule:nonzero;"/><g><path d="M86.959,100.774l0,-16.295l10.028,0l0,16.295l9.382,0l-14.331,14.33l-14.461,-14.33l9.382,0Z" style="fill:#fff;fill-rule:nonzero;"/><path d="M41.66,115.104l8.313,0l0,-17.5l7.787,11.9l0.175,0l7.832,-11.987l0,17.587l8.443,0l0,-30.625l-8.968,0l-7.307,11.856l-7.306,-11.856l-8.969,0l0,30.625Z" style="fill:#fff;fill-rule:nonzero;"/></g></svg>