<?xml version="1.0" encoding="UTF-8" standalone="no"?><!DOCTYPE svg PUBLIC "-//W3C//DTD SVG 1.1//EN" "http://www.w3.org/Graphics/SVG/1.1/DTD/svg11.dtd"><svg width="36px" height="32px" viewBox="0 0 150 134" version="1.1" xmlns="http://www.w3.org/2000/svg" xmlns:xlink="http://www.w3.org/1999/xlink" xml:space="preserve" xmlns:serif="http://www.serif.com/" style="fill-rule:evenodd;clip-rule:evenodd;stroke-linejoin:round;stroke-miterlimit:2;"><path d="M68.072,33.337l0,-22.519l13.857,0l0,22.519l8.786,0c0.7,0 1.334,0.421 1.601,1.069c0.088,0.215 0.13,0.44 0.13,0.663c0,0.451 -0.177,0.894 -0.508,1.225l-15.713,15.713c-0.677,0.677 -1.772,0.677 -2.449,0l-15.713,-15.713c-0.495,-0.497 -0.646,-1.24 -0.376,-1.888c0.267,-0.648 0.901,-1.069 1.601,-1.069l8.784,0Z" style="fill:#fff;fill-rule:nonzero;"/><path d="M40.26,115.104l8.488,0l0,-23.187l9.187,0l0,-7.438l-26.862,0l0,7.438l9.187,0l0,23.187Z" style="fill:#fff;fill-rule:nonzero;"/><path d="M59.423,115.104l9.537,0l5.907,-9.231l5.862,9.231l9.756,0l-10.5,-15.662l10.063,-14.963l-9.538,0l-5.468,8.619l-5.425,-8.619l-9.757,0l10.063,15.05l-10.5,15.575Z" style="fill:#fff;fill-rule:nonzero;"/><path d="M101.16,115.104l8.488,0l0,-23.187l9.187,0l0,-7.438l-26.862,0l0,7.438l9.187,0l0,23.187Z" style="fill:#fff;fill-rule:nonzero;"/></svg>