<?xml version="1.0" encoding="UTF-8" standalone="no"?>
<!DOCTYPE svg PUBLIC "-//W3C//DTD SVG 1.1//EN" "http://www.w3.org/Graphics/SVG/1.1/DTD/svg11.dtd">
<svg width="64px" height="64px" viewBox="0 0 500 500" version="1.1" xmlns="http://www.w3.org/2000/svg" xmlns:xlink="http://www.w3.org/1999/xlink" xml:space="preserve" xmlns:serif="http://www.serif.com/" style="fill-rule:evenodd;clip-rule:evenodd;stroke-linejoin:round;stroke-miterlimit:2;">
    <g transform="matrix(0.954507,0,0,0.954507,1.79555,85.7438)">
        <path d="M365.649,434L183,434L204,366L182.825,366C81.86,366 0,283.797 0,182.828C0,81.856 81.86,0 182.825,0C269.178,0 341.508,59.898 360.64,140.394C335.632,142.372 315.934,163.269 315.934,188.796C315.934,215.635 337.687,237.391 364.541,237.391C364.91,237.391 365.28,237.34 365.649,237.333L365.649,434ZM214.472,237.812C187.622,237.812 165.869,216.055 165.869,189.22C165.869,162.377 187.626,140.617 214.472,140.617C241.319,140.617 263.075,162.377 263.075,189.22C263.075,216.055 241.319,237.812 214.472,237.812Z" style="fill:white;"/>
    </g>
    <g transform="matrix(6.472e-17,-1.05696,1.05696,6.472e-17,123.172,697.575)">
        <path d="M186.956,276.112L186.928,231.01L659.984,231.01L652.233,245.518C624.708,297.09 554.752,324.516 481.717,338.924C410.172,353.034 351.547,354.823 312.196,354.823L302.259,354.823L302.359,276.024C260.665,276.024 186.956,276.112 186.956,276.112Z" style="fill:white;"/>
    </g>
</svg>
