<svg xmlns="http://www.w3.org/2000/svg" fill-rule="evenodd" stroke-linejoin="round" stroke-miterlimit="2" clip-rule="evenodd" viewBox="0 0 521 521"><path d="M263 471l-34-33C113 333 33 263 33 175c0-67 55-121 125-121 42 0 80 17 105 46 20-29 58-46 100-46 70 0 125 54 125 121 0 88-80 158-196 263l-29 33zm-2-31l15-16 2-2c57-51 105-94 139-135 31-38 50-73 50-112 0-55-46-100-104-100-35 0-66 13-84 37a21 21 0 01-32 2c-21-25-53-39-89-39-58 0-104 45-104 100 0 39 19 74 50 112 33 41 82 84 139 135l1 1 17 17z"/></svg>