<svg xmlns="http://www.w3.org/2000/svg" xmlns:xlink="http://www.w3.org/1999/xlink" viewBox="0 0 24 24"><path d="M11.293,6.636l-4.157,4.157c-0.391,0.391-1.024,0.391-1.414,0l-0.086-0.086c-0.391-0.391-0.391-1.024,0-1.414l5.657-5.657c0.391-0.391,1.024-0.391,1.414,0l5.657,5.657c0.391,0.391,0.391,1.024,0,1.414l-0.086,0.086c-0.391,0.391-1.024,0.391-1.414,0l-4.157-4.157C12.317,6.246,11.683,6.246,11.293,6.636z"/><path d="M13,6v14c0,0.552-0.448,1-1,1h0c-0.552,0-1-0.448-1-1V6c0-0.552,0.448-1,1-1h0C12.552,5,13,5.448,13,6z"/></svg>